<?xml version="1.0" encoding="UTF-8"?>
<svg version="1.1" xmlns="http://www.w3.org/2000/svg" width="225" height="225">
<path d="M0 0 C74.25 0 148.5 0 225 0 C225 74.25 225 148.5 225 225 C150.75 225 76.5 225 0 225 C0 150.75 0 76.5 0 0 Z " fill="#9CCBEC" transform="translate(0,0)"/>
<path d="M0 0 C35.64 0 71.28 0 108 0 C104.9830571 2.26270718 102.25317304 4.06098104 98.984375 5.86328125 C97.9931665 6.41298584 97.00195801 6.96269043 95.98071289 7.52905273 C94.38151001 8.41185913 94.38151001 8.41185913 92.75 9.3125 C83.14219538 14.65356877 73.6051368 20.09963132 64.12329102 25.66162109 C58.79531644 28.78625846 53.45872232 31.89439693 48.1015625 34.96875 C47.23376411 35.46720177 47.23376411 35.46720177 46.34843445 35.97572327 C43.56417006 37.57465916 40.77851881 39.17108307 37.99047852 40.76342773 C34.98237553 42.49036807 31.9897304 44.24148096 29 46 C27.9888916 46.57766113 26.9777832 47.15532227 25.93603516 47.75048828 C24.47689697 48.61843018 24.47689697 48.61843018 22.98828125 49.50390625 C22.12372314 50.00865479 21.25916504 50.51340332 20.3684082 51.03344727 C16.68975134 54.08793454 14.39246651 57.57256656 13.62886524 62.29549503 C13.48118737 64.9785172 13.45941516 67.63524437 13.48242188 70.32226562 C13.4754126 71.33616867 13.46840332 72.35007172 13.46118164 73.3946991 C13.44363704 76.73216479 13.45521239 80.0687763 13.46875 83.40625 C13.46605409 85.73360354 13.46217084 88.06095597 13.45715332 90.38830566 C13.45126303 95.26044462 13.45980646 100.13228978 13.47851562 105.00439453 C13.50130445 111.24212278 13.48817891 117.47916254 13.46422577 123.71686554 C13.44975537 128.52106898 13.45437958 133.32510984 13.46473694 138.12931824 C13.46740077 140.42897117 13.46414661 142.72863898 13.45481873 145.02827454 C13.4446331 148.24515757 13.46018361 151.46093355 13.48242188 154.67773438 C13.47027649 156.09622932 13.47027649 156.09622932 13.45788574 157.54338074 C13.53453148 163.54354415 14.4748221 167.09704265 18 172 C21.01503916 174.43888176 21.01503916 174.43888176 24.4375 176.3125 C26.10619141 177.29669922 26.10619141 177.29669922 27.80859375 178.30078125 C30.51123985 179.73976663 33.1532024 180.89396943 36 182 C36.62322144 180.27281738 36.62322144 180.27281738 37.2590332 178.51074219 C45.39979337 155.95495922 53.56348741 133.40762284 61.78793335 110.88220215 C62.58208505 108.70711788 63.37590039 106.53191077 64.16934204 104.35656738 C66.39057713 98.26797001 68.62028231 92.18258488 70.86035156 86.10089111 C71.65419171 83.94091635 72.44497602 81.77981708 73.23339844 79.61785889 C74.46140541 76.2518551 75.69854979 72.8893325 76.9375 69.52734375 C77.31527588 68.485746 77.69305176 67.44414825 78.08227539 66.37098694 C78.61195923 64.94199318 78.61195923 64.94199318 79.15234375 63.48413086 C79.46163818 62.640233 79.77093262 61.79633514 80.08959961 60.92686462 C81 59 81 59 83 58 C84.81341842 57.91528636 86.62994161 57.89278917 88.4453125 57.90234375 C89.52167969 57.90556641 90.59804687 57.90878906 91.70703125 57.91210938 C92.83496094 57.92048828 93.96289062 57.92886719 95.125 57.9375 C96.82849609 57.94426758 96.82849609 57.94426758 98.56640625 57.95117188 C101.37765638 57.96298385 104.1888023 57.97945493 107 58 C106.40882367 63.38431976 105.10993613 68.07183813 103.25390625 73.1484375 C102.97155121 73.93697113 102.68919617 74.72550476 102.39828491 75.53793335 C101.45974564 78.15276363 100.51132299 80.7638854 99.5625 83.375 C98.89160737 85.23585805 98.22112487 87.096864 97.55102539 88.95800781 C92.3989802 103.24103096 87.17197263 117.4970175 81.9375 131.75 C81.56234253 132.7716626 81.18718506 133.7933252 80.80065918 134.84594727 C77.145756 144.79411595 73.48067082 154.73810022 69.75602722 164.66040039 C68.41715777 168.22816465 67.08432336 171.79817025 65.7517395 175.36828613 C64.83282013 177.82076809 63.90378771 180.26925672 62.97436523 182.71777344 C62.42640202 184.18405111 61.87892645 185.65051115 61.33203125 187.1171875 C60.95073563 188.10720261 60.95073563 188.10720261 60.56173706 189.11721802 C59.11683138 192.98960862 59.11683138 192.98960862 60 197 C63.50294871 198.71567661 63.50294871 198.71567661 67 200 C67.10151367 199.35579102 67.20302734 198.71158203 67.30761719 198.04785156 C68.23229949 193.97742356 69.64726557 190.15131006 71.078125 186.234375 C71.39689606 185.35331589 71.71566711 184.47225677 72.0440979 183.5644989 C73.1090033 180.624965 74.17936709 177.68745224 75.25 174.75 C76.0055208 172.66940657 76.7608886 170.58875758 77.51611328 168.50805664 C85.75517052 145.83606144 94.11215213 123.20724185 102.470047 100.57885742 C104.89835069 93.99972638 107.31252625 87.41572334 109.70703125 80.82421875 C110.10547241 79.72910225 110.10547241 79.72910225 110.51196289 78.61186218 C111.67338772 75.41926622 112.83128696 72.22555863 113.98193359 69.02905273 C114.3630127 67.98048096 114.7440918 66.93190918 115.13671875 65.8515625 C115.45342529 64.97322754 115.77013184 64.09489258 116.09643555 63.18994141 C117 61 117 61 119 58 C121.52197266 57.65942383 121.52197266 57.65942383 124.6640625 57.70703125 C125.78554687 57.71669922 126.90703125 57.72636719 128.0625 57.73632812 C129.238125 57.76146484 130.41375 57.78660156 131.625 57.8125 C133.40003906 57.83280273 133.40003906 57.83280273 135.2109375 57.85351562 C138.14107539 57.88896084 141.07031459 57.93837231 144 58 C143.32343305 63.80061105 141.35987218 69.00251346 139.37890625 74.45703125 C139.00767639 75.49136292 138.63644653 76.52569458 138.25396729 77.59136963 C137.02868545 81.0003133 135.79578023 84.4064426 134.5625 87.8125 C133.70050102 90.20425059 132.83876969 92.59609766 131.97729492 94.98803711 C126.31114217 110.69983398 120.57883737 126.38722932 114.8125 142.0625 C114.44732269 143.05523926 114.08214539 144.04797852 113.7059021 145.07080078 C110.36084927 154.16237373 107.01339763 163.25306071 103.66064453 172.34179688 C101.75253006 177.51628547 99.85115618 182.69320918 97.95419312 187.87179565 C97.24077143 189.81580568 96.52501098 191.75895918 95.80679321 193.70120239 C94.82099288 196.36767812 93.84315051 199.03694225 92.8671875 201.70703125 C92.57441422 202.49309753 92.28164093 203.27916382 91.97999573 204.08905029 C90.69588643 207.62667614 90 210.19109553 90 214 C95.94 217.3 101.88 220.6 108 224 C108 224.33 108 224.66 108 225 C72.36 225 36.72 225 0 225 C0 150.75 0 76.5 0 0 Z " fill="#FDFDFD" transform="translate(0,0)"/>
<path d="M0 0 C2.54174805 1.25244141 2.54174805 1.25244141 5.26171875 2.8515625 C6.28475098 3.44783447 7.3077832 4.04410645 8.36181641 4.65844727 C10.00802979 5.63189087 10.00802979 5.63189087 11.6875 6.625 C12.8477084 7.30404975 14.00836111 7.98234087 15.16943359 8.65991211 C17.58227311 10.06872425 19.99316635 11.4807863 22.40283203 12.89501953 C27.95760527 16.15087959 33.54362703 19.35254453 39.125 22.5625 C47.8415574 27.58998536 56.55122177 32.62931168 65.25 37.6875 C66.24402832 38.2637915 67.23805664 38.84008301 68.26220703 39.43383789 C69.65608643 40.24582642 69.65608643 40.24582642 71.078125 41.07421875 C71.88668945 41.54432373 72.69525391 42.01442871 73.52832031 42.4987793 C74.34397461 42.99418213 75.15962891 43.48958496 76 44 C77.02398392 44.49612289 78.04796783 44.99224579 79.10298157 45.50340271 C82.20251212 48.17452123 82.42815996 48.41756577 82.78208923 52.19906616 C82.82687921 53.94778543 82.83838919 55.69754396 82.82397461 57.44677734 C82.8393074 58.40332718 82.8546402 59.35987701 82.87043762 60.34541321 C82.91216008 63.50949315 82.90925435 66.67161509 82.90234375 69.8359375 C82.91400378 72.03545868 82.92700762 74.23497311 82.94129944 76.43447876 C82.96369362 81.04638555 82.96280866 85.65760347 82.94702148 90.26953125 C82.9296421 96.17760717 82.98040307 102.08285997 83.0500555 107.99046898 C83.09427574 112.53397075 83.09688215 117.07679312 83.08752632 121.62047195 C83.08906591 123.79819961 83.10477941 125.97596532 83.13496208 128.15348434 C83.17203211 131.20232536 83.15172258 134.24567902 83.11694336 137.29443359 C83.15134018 138.64123451 83.15134018 138.64123451 83.18643188 140.01524353 C83.0894026 143.86760088 82.92323716 146.09650946 80.09759712 148.86171341 C76.26382056 151.49887811 72.33972635 153.34058675 68 155 C61.41491378 137.55277739 54.95202496 120.06240023 48.54931641 102.54760742 C47.2401899 98.96712414 45.92666474 95.38826957 44.61230469 91.80970478 C43.58729443 89.01647221 42.56551296 86.22206661 41.5446167 83.42732811 C41.06102997 82.10524175 40.57623011 80.78359842 40.09014893 79.46242714 C39.41734333 77.63286714 38.74957617 75.80145669 38.08203125 73.9699707 C37.70280518 72.93427444 37.3235791 71.89857819 36.93286133 70.83149719 C36.07418093 68.22516003 35.46962578 65.70048387 35 63 C33.515 63.495 33.515 63.495 32 64 C30.52436581 66.8926741 30.52436581 66.8926741 29.265625 70.484375 C29.02334167 71.13698303 28.78105835 71.78959106 28.53143311 72.4619751 C28.02155611 73.84526665 27.51757679 75.23074412 27.01904297 76.61816406 C26.25569375 78.73421657 25.46725633 80.83964359 24.67578125 82.9453125 C24.18334726 84.29110104 23.69241258 85.63743933 23.203125 86.984375 C22.75614258 88.20866211 22.30916016 89.43294922 21.84863281 90.69433594 C20.59321414 95.5845456 21.99085378 99.25385381 23.6706543 103.90356445 C24.01158615 104.85258133 24.35251801 105.80159821 24.70378113 106.77937317 C25.07352554 107.79706284 25.44326996 108.8147525 25.82421875 109.86328125 C26.20810257 110.92806198 26.59198639 111.99284271 26.98750305 113.08988953 C27.80211146 115.34738778 28.61841344 117.60427554 29.4362793 119.8605957 C30.66869829 123.26062928 31.89636903 126.66234458 33.12304688 130.06445312 C33.91909016 132.26829443 34.71531181 134.47207133 35.51171875 136.67578125 C35.89866913 137.74829132 36.28561951 138.82080139 36.68429565 139.92581177 C38.39425 144.64760769 40.1223718 149.35722443 41.95556641 154.03271484 C42.2443013 154.77434372 42.53303619 155.5159726 42.83052063 156.28007507 C43.58147756 158.19470766 44.34638309 160.1038537 45.11254883 162.01245117 C45.99123199 164.97048305 46.29569083 166.23487887 45 169 C42.625 170.8125 42.625 170.8125 40 172 C37 171 37 171 35.84199524 168.71580505 C35.47559433 167.70542679 35.10919342 166.69504852 34.73168945 165.65405273 C34.31148026 164.5129454 33.89127106 163.37183807 33.45832825 162.19615173 C33.01446274 160.9545076 32.57059723 159.71286346 32.11328125 158.43359375 C31.6477542 157.15670006 31.18120334 155.88017919 30.71366882 154.60401917 C29.48524529 151.24244042 28.27082265 147.87596674 27.0592041 144.50830078 C25.82063932 141.07344498 24.56895913 137.64337869 23.31835938 134.21289062 C20.86601277 127.47989056 18.42843101 120.74166782 16 114 C15.34 114 14.68 114 14 114 C13.73783691 114.70084717 13.47567383 115.40169434 13.20556641 116.1237793 C12.01262483 119.31190378 10.81882108 122.49970475 9.625 125.6875 C9.2125 126.79029297 8.8 127.89308594 8.375 129.02929688 C7.97539063 130.09599609 7.57578125 131.16269531 7.1640625 132.26171875 C6.79748535 133.24100342 6.4309082 134.22028809 6.05322266 135.22924805 C5 138 5 138 3.80224609 140.35864258 C1.88453905 146.67260258 4.48269652 153.07598307 6.72265625 159 C6.98759384 159.7211499 7.25253143 160.4422998 7.52549744 161.18530273 C8.36320595 163.45990558 9.21260894 165.72992482 10.0625 168 C10.63685068 169.55309609 11.21042576 171.10647924 11.78320312 172.66015625 C13.17986505 176.44347914 14.58702321 180.22274162 16 184 C12.67724507 187.45018821 9.1971237 189.92931858 5.0625 192.3125 C4.15081055 192.8703418 4.15081055 192.8703418 3.22070312 193.43945312 C0.63821073 194.93546005 -1.40456325 195.99615847 -4.421875 196.015625 C-8.25904542 194.50401241 -11.75522981 192.51336902 -15.3125 190.4375 C-16.42334961 189.80038086 -16.42334961 189.80038086 -17.55664062 189.15039062 C-19.37468118 188.10648347 -21.18783748 187.05407808 -23 186 C-20.4380828 176.82085534 -17.17287237 167.89415532 -13.9375 158.9375 C-13.32280876 157.23031554 -12.70814478 155.52312126 -12.09350586 153.81591797 C-4.90480231 133.87816875 2.43100577 113.99407546 9.75292969 94.10498047 C13.0292123 85.20466763 16.30257035 76.30329139 19.56765747 67.39886475 C20.22561779 65.60564585 20.88435758 63.81271273 21.54391479 62.02008057 C22.44913607 59.55964907 23.3518313 57.0983052 24.25390625 54.63671875 C24.65254379 53.55596825 24.65254379 53.55596825 25.05923462 52.4533844 C26.20809555 49.31058396 27.18688301 46.25246795 28 43 C15.625 43.495 15.625 43.495 3 44 C-2.12870172 57.01953667 -7.00383711 70.11274446 -11.76397705 83.27105713 C-13.92943185 89.25650635 -16.10213316 95.23932713 -18.2734375 101.22265625 C-18.73458263 102.493993 -19.19571328 103.76533501 -19.65682983 105.03668213 C-24.78075229 119.16184258 -29.92847432 133.2783128 -35.08056641 147.39321899 C-36.35982345 150.89801425 -37.63816519 154.40314258 -38.91628456 157.90835285 C-39.87629534 160.54063662 -40.83698949 163.17267057 -41.79789352 165.80462837 C-42.45824444 167.61387422 -43.1178806 169.42338089 -43.77749634 171.2328949 C-44.17399384 172.31829056 -44.57049133 173.40368622 -44.97900391 174.52197266 C-45.32283112 175.46416656 -45.66665833 176.40636047 -46.02090454 177.37710571 C-46.97561408 179.93467268 -47.97541008 182.4697149 -49 185 C-52.86695903 184.46292236 -54.97060499 183.41445371 -58 181 C-55.83756992 173.4403396 -53.29620861 166.05812992 -50.60546875 158.671875 C-50.18137726 157.50114944 -49.75728577 156.33042389 -49.32034302 155.1242218 C-48.18091743 151.98100339 -47.0389907 148.83871842 -45.89566422 145.69691849 C-44.94410912 143.08085831 -43.99455517 140.46407353 -43.04493618 137.84731007 C-34.68711004 114.81875502 -26.2878645 91.80436682 -17.70558167 68.85835266 C-16.98074912 66.92016342 -16.25719534 64.98150121 -15.53393555 63.04272461 C-14.66913016 60.72711605 -13.80107888 58.41271569 -12.92895508 56.09985352 C-12.55407959 55.09623779 -12.1792041 54.09262207 -11.79296875 53.05859375 C-11.30606567 51.76393188 -11.30606567 51.76393188 -10.80932617 50.44311523 C-9.81688131 47.61389236 -9.81688131 47.61389236 -9 43 C-17.58 43.33 -26.16 43.66 -35 44 C-35.99 47.63 -36.98 51.26 -38 55 C-39.16085223 58.37880542 -40.34808856 61.7255465 -41.59765625 65.0703125 C-41.94444931 66.01050735 -42.29124237 66.95070221 -42.64854431 67.91938782 C-43.78209117 70.98958756 -44.92213124 74.05732829 -46.0625 77.125 C-47.26578505 80.37526665 -48.4677709 83.62601209 -49.66976929 86.87675476 C-50.50187709 89.12657812 -51.33458715 91.37617883 -52.1678772 93.62556458 C-55.17868004 101.75778509 -58.15673377 109.90152977 -61.12109375 118.05078125 C-62.34993946 121.42237495 -63.57919907 124.79381748 -64.80856323 128.16522217 C-65.60178873 130.34381385 -66.39323693 132.52305348 -67.18289185 134.70294189 C-68.28354976 137.74002496 -69.39100474 140.77454708 -70.5 143.80859375 C-70.82628891 144.71458817 -71.15257782 145.62058258 -71.48875427 146.55403137 C-71.79152786 147.3785228 -72.09430145 148.20301422 -72.40625 149.05249023 C-72.66728516 149.77073471 -72.92832031 150.48897919 -73.19726562 151.22898865 C-74 153 -74 153 -76 155 C-81.04292821 153.24799962 -85.64767961 151.25877629 -89 147 C-91.54139851 140.04980023 -90.72930951 132.04947013 -90.5859375 124.7734375 C-90.58453539 122.57963913 -90.5875843 120.38583381 -90.59487915 118.19204712 C-90.59599257 113.60294297 -90.55231593 109.01715013 -90.47509766 104.42871094 C-90.37851842 98.55174194 -90.3797797 92.67979317 -90.41274071 86.80228233 C-90.42973175 82.27566537 -90.40201815 77.75019572 -90.36009598 73.22377396 C-90.34405529 71.05732369 -90.34022973 68.89074684 -90.34891891 66.72425461 C-90.35295163 63.69436906 -90.29852716 60.67103895 -90.22802734 57.64208984 C-90.23996124 56.75050674 -90.25189514 55.85892365 -90.26419067 54.94032288 C-90.11932607 51.08293999 -89.92688553 48.88045102 -87.05463028 46.15208817 C-84.75955297 44.599488 -82.45999156 43.27203108 -80 42 C-78.67437106 41.24204438 -77.34989105 40.48207001 -76.02734375 39.71875 C-74.6657063 38.97614464 -73.3023458 38.23669207 -71.9375 37.5 C-64.72498974 33.54822169 -57.59603265 29.46964274 -50.5 25.3125 C-41.66291724 20.13653529 -32.81003238 14.98986453 -23.9375 9.875 C-22.30554688 8.93394409 -22.30554688 8.93394409 -20.640625 7.97387695 C-18.63247431 6.81657618 -16.62205365 5.66320109 -14.60888672 4.51464844 C-13.01482661 3.58918064 -11.43409299 2.63958121 -9.87939453 1.64941406 C-6.0461208 -0.76431984 -4.32213796 -1.2659919 0 0 Z " fill="#203046" transform="translate(116,15)"/>
<path d="M0 0 C35.64 0 71.28 0 108 0 C108 74.25 108 148.5 108 225 C72.36 225 36.72 225 0 225 C3.18883331 222.60837502 6.12096565 220.74260095 9.59375 218.84765625 C10.69638184 218.24219971 11.79901367 217.63674316 12.93505859 217.01293945 C13.51632507 216.69507477 14.09759155 216.37721008 14.69647217 216.04971313 C24.50930778 210.67837368 34.21352186 205.16446957 43.7746582 199.35424805 C49.69234543 195.76427703 55.67085802 192.29630277 61.6875 188.875 C62.55681152 188.37750244 63.42612305 187.88000488 64.32177734 187.36743164 C68.5038059 184.97595942 72.69724726 182.61301355 76.92578125 180.3046875 C78.45064905 179.45335462 79.97539507 178.60180356 81.5 177.75 C82.53193481 177.20448486 82.53193481 177.20448486 83.5847168 176.64794922 C88.67051273 173.77112247 91.62993228 170.36027647 94 165 C94.66858072 161.49998025 94.66520547 158.1036296 94.61523438 154.54833984 C94.62355789 153.0248568 94.62355789 153.0248568 94.63204956 151.47059631 C94.64380265 148.13355438 94.61961667 144.79788322 94.59375 141.4609375 C94.59203793 139.13261985 94.59210556 136.80430027 94.59387207 134.47598267 C94.59222137 129.60554468 94.57356589 124.73556838 94.54199219 119.86523438 C94.50227182 113.62638638 94.49795378 107.38814139 94.50545502 101.1491909 C94.50852578 96.34502653 94.49640103 91.54099742 94.47932434 86.736866 C94.47230068 84.43639601 94.46916904 82.1359107 94.47001648 79.83543015 C94.46821662 76.62096227 94.44681907 73.4072143 94.41992188 70.19287109 C94.42285248 69.24518356 94.42578308 68.29749603 94.42880249 67.3210907 C94.36189392 62.13235198 93.90622786 58.48326304 91 54 C87.7412823 50.97402347 84.16319879 48.81668103 80.30078125 46.63671875 C79.18751465 46.00499756 78.07424805 45.37327637 76.92724609 44.72241211 C76.33901062 44.39127411 75.75077515 44.06013611 75.14471436 43.71896362 C72.63313685 42.30504564 70.12707484 40.8814735 67.62054443 39.45863342 C66.32383464 38.72272457 65.02683499 37.98732624 63.72955322 37.25242615 C57.42563604 33.68042073 51.14799414 30.06351095 44.875 26.4375 C43.82642822 25.83220459 42.77785645 25.22690918 41.69750977 24.60327148 C36.67002505 21.7006831 31.64450826 18.79472457 26.62149048 15.88441467 C24.2386164 14.50413447 21.85498099 13.12517229 19.47125244 11.74636841 C17.79631501 10.77681002 16.12250627 9.8053026 14.44873047 8.83374023 C13.42924316 8.24407471 12.40975586 7.65440918 11.359375 7.046875 C10.46702148 6.52963867 9.57466797 6.01240234 8.65527344 5.47949219 C5.81162543 3.89503955 2.92128269 2.43548556 0 1 C0 0.67 0 0.34 0 0 Z " fill="#FEFEFE" transform="translate(117,0)"/>
<path d="M0 0 C0.99 0 1.98 0 3 0 C3.78710052 2.14114684 4.57415602 4.28231021 5.36116028 6.42349243 C6.07378491 8.362227 6.78650601 10.30092611 7.49931335 12.23959351 C9.5036846 17.69202093 11.50550521 23.14536539 13.50292969 28.6003418 C17.13430575 38.51253406 20.76972974 48.4221849 24.49583435 58.29924011 C25.92018009 62.07685784 27.33386686 65.85841996 28.74655151 69.64041138 C29.41436604 71.41873843 30.08763242 73.19502787 30.76638794 74.96920776 C31.70693031 77.42899616 32.62883116 79.89502551 33.546875 82.36328125 C33.82818771 83.08397797 34.10950043 83.80467468 34.39933777 84.54721069 C36.15997846 89.35906676 36.15997846 89.35906676 35.42529297 92.30249023 C33.68695661 94.37283157 32.00832866 95.47533595 29.6484375 96.796875 C28.79765625 97.28027344 27.946875 97.76367188 27.0703125 98.26171875 C26.18085938 98.75285156 25.29140625 99.24398437 24.375 99.75 C23.4778125 100.25660156 22.580625 100.76320313 21.65625 101.28515625 C19.44273975 102.53319926 17.22409276 103.77094617 15 105 C12.99054372 101.98581558 11.92566306 99.35250635 10.69335938 95.95556641 C10.47194778 95.34868484 10.25053619 94.74180328 10.02241516 94.11653137 C9.29244316 92.11288354 8.56811563 90.10724322 7.84375 88.1015625 C7.33610563 86.70521764 6.82808416 85.30900982 6.31970215 83.91293335 C4.98209767 80.23689205 3.64915812 76.55917689 2.31732178 72.88104248 C0.4422894 67.70541544 -1.43907564 62.5320863 -3.31970215 57.35848999 C-4.32075576 54.60453876 -5.32007575 51.84996827 -6.31799316 49.09487915 C-6.77644299 47.83099163 -7.23489811 46.56710603 -7.69335938 45.30322266 C-8.09147827 44.2041861 -8.48959717 43.10514954 -8.89978027 41.97280884 C-9.60752996 40.06045946 -10.35763115 38.16298282 -11.15881348 36.28785706 C-12.98917732 31.30963794 -10.51397269 26.27771427 -8.75 21.54296875 C-8.08484375 19.75149414 -8.08484375 19.75149414 -7.40625 17.92382812 C-6.9421875 16.69083984 -6.478125 15.45785156 -6 14.1875 C-5.53081835 12.92268608 -5.06206428 11.65771346 -4.59375 10.39257812 C-1.13955628 1.13955628 -1.13955628 1.13955628 0 0 Z " fill="#12A8FC" transform="translate(148,78)"/>
<path d="M0 0 C3 1 3 1 4.15800476 3.27073669 C4.70760612 4.77725548 4.70760612 4.77725548 5.26831055 6.31420898 C5.68851974 7.44886093 6.10872894 8.58351288 6.54167175 9.75254822 C6.98553726 10.98791824 7.42940277 12.22328827 7.88671875 13.49609375 C8.35233821 14.76816375 8.81888818 16.03989351 9.28633118 17.31129456 C10.26408838 19.9778934 11.23425105 22.64708595 12.19848633 25.31860352 C13.43591235 28.74680877 14.6861076 32.17016678 15.94125652 35.59191799 C17.13579668 38.85004643 18.32402766 42.11046372 19.51171875 45.37109375 C20.18662605 47.22111244 20.18662605 47.22111244 20.87516785 49.10850525 C21.28592056 50.24630936 21.69667328 51.38411346 22.11987305 52.55639648 C22.48388718 53.56153793 22.84790131 54.56667938 23.22294617 55.60227966 C24 58 24 58 24 60 C20.54914225 62.03381096 17.08820304 64.04979434 13.625 66.0625 C12.64015625 66.64322266 11.6553125 67.22394531 10.640625 67.82226562 C9.22910156 68.63920898 9.22910156 68.63920898 7.7890625 69.47265625 C6.91975098 69.98062744 6.05043945 70.48859863 5.15478516 71.01196289 C4.44370605 71.33801514 3.73262695 71.66406738 3 72 C-0.32648553 70.33675724 -0.85762906 66.61075442 -2.07421875 63.2734375 C-2.36230911 62.49239655 -2.65039948 61.71135559 -2.94721985 60.90664673 C-3.55536999 59.24859251 -4.15952108 57.58906694 -4.76000977 55.92822266 C-5.6783586 53.40016471 -6.62064095 50.88192414 -7.56445312 48.36328125 C-8.1525412 46.75054602 -8.73917629 45.13728007 -9.32421875 43.5234375 C-9.60746506 42.7752475 -9.89071136 42.0270575 -10.18254089 41.25619507 C-12.67052054 34.23008646 -11.51920795 28.89912753 -9.00390625 21.953125 C-8.61009766 20.86128906 -8.21628906 19.76945312 -7.81054688 18.64453125 C-7.39869141 17.52433594 -6.98683594 16.40414062 -6.5625 15.25 C-6.15451172 14.11433594 -5.74652344 12.97867188 -5.32617188 11.80859375 C-2.27169969 3.40754954 -2.27169969 3.40754954 0 0 Z " fill="#12A8FC" transform="translate(130,128)"/>
</svg>
